<?xml version="1.0" standalone="no"?>
<!DOCTYPE svg PUBLIC "-//W3C//DTD SVG 20010904//EN"
 "http://www.w3.org/TR/2001/REC-SVG-20010904/DTD/svg10.dtd">
<svg version="1.0" xmlns="http://www.w3.org/2000/svg"
 width="700.000000pt" height="700.000000pt" viewBox="0 0 700.000000 700.000000"
 preserveAspectRatio="xMidYMid meet">
<metadata>
Created by potrace 1.11, written by Peter Selinger 2001-2013
</metadata>
<g transform="translate(0.000000,700.000000) scale(0.100000,-0.100000)"
fill="#000000" stroke="none">
<path d="M5391 6935 c-81 -173 -280 -361 -481 -452 -61 -28 -158 -62 -225 -79
-16 -4 -32 -8 -35 -9 -3 -1 -30 -5 -60 -9 -30 -5 -63 -10 -73 -12 -10 -2 -75
-6 -145 -9 -144 -7 -229 -13 -269 -19 -16 -2 -62 -9 -103 -16 -110 -16 -265
-49 -345 -72 -109 -32 -175 -46 -175 -38 0 9 126 114 211 177 93 69 242 134
454 199 50 16 94 31 98 35 10 7 -151 3 -191 -5 -15 -3 -45 -9 -67 -12 -107
-16 -318 -76 -445 -127 -179 -73 -274 -125 -495 -277 -80 -55 -147 -85 -285
-131 -93 -30 -110 -39 -91 -45 22 -7 23 -10 19 -79 -4 -55 -11 -84 -31 -118
-46 -77 -56 -83 -297 -157 -240 -74 -396 -143 -507 -226 -40 -30 -75 -54 -78
-54 -8 0 -6 42 5 81 6 20 22 49 36 64 14 15 23 29 20 32 -2 3 -25 -5 -51 -16
-76 -34 -169 -143 -219 -258 -20 -45 -30 -52 -43 -30 -13 21 -92 81 -99 75 -3
-4 10 -48 29 -100 49 -130 103 -324 121 -432 5 -31 16 -48 16 -26 0 28 53 90
94 109 50 24 113 33 119 17 2 -6 3 -34 3 -63 l-1 -51 26 19 c15 10 52 46 83
80 55 61 56 61 57 33 1 -16 3 -38 4 -49 1 -11 3 -28 3 -37 3 -30 24 -20 79 38
29 31 54 50 54 42 4 -43 9 -71 13 -76 3 -3 34 24 69 61 63 65 63 65 62 34 -1
-18 1 -36 3 -40 5 -10 69 37 98 72 l21 25 7 -46 7 -47 61 60 c69 68 120 101
199 128 47 16 61 17 90 7 78 -28 174 -108 205 -174 22 -46 30 -159 15 -205
l-12 -35 -92 25 c-101 27 -245 35 -369 19 l-68 -8 0 46 c0 25 -2 46 -5 46 -10
0 -80 -49 -114 -79 -40 -37 -49 -38 -60 -8 -5 12 -13 32 -18 45 l-8 24 -35
-32 c-87 -77 -110 -93 -110 -73 -1 10 -7 32 -14 48 l-13 30 -77 -79 -76 -80 0
42 c0 56 -19 55 -62 -5 -64 -90 -92 -184 -78 -258 l6 -30 12 35 c23 64 37 90
48 90 6 0 29 -20 51 -44 22 -24 64 -61 94 -82 88 -62 117 -100 145 -187 14
-44 20 -54 25 -40 14 34 9 104 -11 161 -12 31 -22 61 -23 66 -1 5 27 10 63 11
36 1 110 5 165 9 138 11 194 15 310 23 127 10 524 10 590 1 67 -9 159 -34 198
-54 53 -27 118 -85 135 -120 18 -40 26 -39 107 10 150 90 234 209 268 376 24
120 4 320 -43 445 -10 25 -10 25 19 10 37 -19 82 -73 119 -144 106 -200 64
-499 -92 -669 -79 -86 -175 -143 -301 -178 -39 -11 -71 -28 -91 -48 -63 -63
-103 -85 -379 -205 -11 -5 -42 -19 -70 -31 -27 -13 -67 -29 -88 -36 -20 -7
-52 -20 -70 -28 -70 -32 -277 -116 -372 -151 -228 -85 -357 -166 -512 -320
-292 -292 -442 -707 -436 -1215 4 -427 65 -717 213 -1012 121 -241 267 -424
481 -603 167 -140 445 -274 694 -335 176 -43 276 -53 505 -54 207 -1 327 8
400 29 8 3 33 7 55 11 62 9 239 70 334 115 275 128 505 336 684 616 128 200
222 451 261 693 18 113 21 390 4 391 -7 1 -502 2 -1099 3 l-1086 1 9 -30 c5
-16 14 -45 19 -63 15 -49 83 -175 127 -235 99 -133 248 -230 427 -278 74 -20
107 -22 463 -24 211 -1 386 -5 389 -8 6 -7 -44 -98 -100 -181 -84 -124 -235
-252 -367 -313 -55 -25 -162 -57 -250 -75 -73 -14 -343 -17 -435 -5 -211 28
-412 113 -580 246 -262 207 -414 465 -486 826 -30 151 -31 169 -26 320 4 127
10 180 30 256 58 221 179 402 352 526 70 50 183 108 227 117 129 26 158 30
363 51 33 3 71 8 85 10 14 2 61 6 105 10 44 3 91 8 105 10 14 2 48 6 75 10
115 13 210 27 216 30 3 2 21 7 40 10 72 12 215 58 293 94 222 102 355 221 476
424 19 31 38 57 43 57 17 0 -1 -162 -27 -251 -20 -68 -79 -230 -113 -307 -11
-26 100 40 154 91 103 98 222 321 248 465 3 17 9 42 14 55 5 13 12 39 15 58 3
19 7 43 10 54 2 11 7 40 11 65 4 25 9 54 11 64 2 11 6 62 10 115 8 137 11 172
16 176 22 22 64 -106 76 -234 5 -45 7 -135 6 -199 -2 -122 -7 -179 -28 -292
l-7 -35 22 35 c71 114 167 372 192 520 15 86 17 360 3 425 -67 308 -194 530
-429 750 l-92 86 45 -5 c114 -15 337 -159 523 -338 53 -52 97 -93 97 -92 0 1
-16 49 -36 106 -90 263 -258 458 -479 559 -63 28 -177 63 -245 74 -19 3 -73
15 -120 26 -47 11 -92 22 -101 24 -9 2 -49 13 -90 25 -79 23 -123 46 -115 59
5 8 200 5 266 -4 127 -17 341 -23 470 -13 280 23 486 133 600 321 l24 41 -54
-31 c-58 -33 -175 -70 -250 -79 -25 -3 -53 -7 -62 -10 -10 -3 -93 -5 -186 -5
-162 -1 -239 6 -427 36 -114 18 -267 26 -468 25 -124 0 -158 3 -155 12 11 33
104 45 408 53 223 6 330 24 485 82 240 90 460 291 520 473 20 63 31 217 18
275 l-9 39 -23 -49z m-2186 -1290 c22 -11 59 -34 83 -52 l43 -32 -33 -18 c-48
-25 -231 -24 -311 1 -9 3 -24 8 -32 11 -11 3 0 20 38 60 l52 57 60 -4 c33 -2
78 -13 100 -23z"/>
</g>
</svg>
